<svg width="58" height="10" viewBox="0 0 58 10" fill="none" xmlns="http://www.w3.org/2000/svg">
<path d="M1.9125 10L3.075 6.2L0 4H3.8L5 0L6.2 4H10L6.925 6.2L8.0875 10L5 7.65L1.9125 10Z" fill="#001122"/>
<path d="M13.9125 10L15.075 6.2L12 4H15.8L17 0L18.2 4H22L18.925 6.2L20.0875 10L17 7.65L13.9125 10Z" fill="#001122"/>
<path d="M25.9125 10L27.075 6.2L24 4H27.8L29 0L30.2 4H34L30.925 6.2L32.0875 10L29 7.65L25.9125 10Z" fill="#001122"/>
<path d="M37.9125 10L39.075 6.2L36 4H39.8L41 0L42.2 4H46L42.925 6.2L44.0875 10L41 7.65L37.9125 10Z" fill="#001122"/>
<path d="M49.9125 10L51.075 6.2L48 4H51.8L53 0L54.2 4H58L54.925 6.2L56.0875 10L53 7.65L49.9125 10Z" fill="#001122"/>
</svg>
